HIERARCHY
ROOT newVegas:Hips
{
	OFFSET 0.000000 96.479958 0.000000
	CHANNELS 6 Xposition Yposition Zposition Xrotation Yrotation Zrotation
	JOINT newVegas:Pelvis
	{
		OFFSET 0.000000 0.000000 0.000000
		CHANNELS 3 Xrotation Yrotation Zrotation
		JOINT newVegas:LeftUpLeg
		{
			OFFSET 18.735201 -5.666702 -4.541200
			CHANNELS 3 Xrotation Yrotation Zrotation
			JOINT newVegas:LeftLeg
			{
				OFFSET -0.021200 -31.938179 0.493100
				CHANNELS 3 Xrotation Yrotation Zrotation
				JOINT newVegas:LeftFoot
				{
					OFFSET 0.021200 -31.938179 -4.336299
					CHANNELS 3 Xrotation Yrotation Zrotation
					JOINT newVegas:LeftToeBase
					{
						OFFSET 0.943001 -26.722000 15.023500
						CHANNELS 3 Xrotation Yrotation Zrotation
						End Site
						{
							OFFSET 0.000000 30.670183 0.000000
						}
					}
				}
				JOINT newVegas:Left_PantLeg
				{
					OFFSET 0.663870 -9.044666 -1.108900
					CHANNELS 3 Xrotation Yrotation Zrotation
					End Site
					{
						OFFSET 1.415995 20.635357 0.000000
					}
				}
			}
		}
		JOINT newVegas:RightUpLeg
		{
			OFFSET -18.735201 -5.666702 -4.541200
			CHANNELS 3 Xrotation Yrotation Zrotation
			JOINT newVegas:RightLeg
			{
				OFFSET 0.018946 -31.938133 0.493100
				CHANNELS 3 Xrotation Yrotation Zrotation
				JOINT newVegas:RightFoot
				{
					OFFSET -0.018946 -31.938126 -4.336299
					CHANNELS 3 Xrotation Yrotation Zrotation
					JOINT newVegas:RightToeBase
					{
						OFFSET -0.943001 -26.722004 15.023500
						CHANNELS 3 Xrotation Yrotation Zrotation
						End Site
						{
							OFFSET 0.000000 30.670187 0.000000
						}
					}
				}
				JOINT newVegas:Right_PantLeg
				{
					OFFSET -0.661674 -9.044716 -1.108900
					CHANNELS 3 Xrotation Yrotation Zrotation
					End Site
					{
						OFFSET -1.415958 20.635269 0.000000
					}
				}
			}
		}
	}
	JOINT newVegas:Spine
	{
		OFFSET 0.000000 10.199997 -0.299500
		CHANNELS 3 Xrotation Yrotation Zrotation
		JOINT newVegas:Spine1
		{
			OFFSET 0.000000 11.900002 -1.516600
			CHANNELS 3 Xrotation Yrotation Zrotation
			JOINT newVegas:Spine2
			{
				OFFSET 0.000000 13.600006 -2.842500
				CHANNELS 3 Xrotation Yrotation Zrotation
				JOINT newVegas:Neck
				{
					OFFSET 0.000000 9.624100 -2.890100
					CHANNELS 3 Xrotation Yrotation Zrotation
					JOINT newVegas:Head
					{
						OFFSET 0.000000 14.068802 -1.351900
						CHANNELS 3 Xrotation Yrotation Zrotation
						JOINT newVegas:Hair_Back
						{
							OFFSET 0.000000 3.231903 -17.524799
							CHANNELS 3 Xrotation Yrotation Zrotation
							End Site
							{
								OFFSET 0.000000 19.849884 0.000000
							}
						}
						JOINT newVegas:Hair_Front
						{
							OFFSET 0.000000 31.260406 4.573800
							CHANNELS 3 Xrotation Yrotation Zrotation
							JOINT newVegas:Hair_Front1
							{
								OFFSET 0.000000 2.284103 11.993300
								CHANNELS 3 Xrotation Yrotation Zrotation
								JOINT newVegas:Hair_Front2
								{
									OFFSET 0.000000 2.284103 11.993300
									CHANNELS 3 Xrotation Yrotation Zrotation
									End Site
									{
										OFFSET 0.000000 12.208862 0.000000
									}
								}
							}
						}
						JOINT newVegas:Jowel
						{
							OFFSET 0.000000 -7.458206 6.864100
							CHANNELS 3 Xrotation Yrotation Zrotation
							End Site
							{
								OFFSET 0.000000 19.849884 0.000000
							}
						}
					}
				}
				JOINT newVegas:LeftShoulder
				{
					OFFSET 15.263000 10.923401 -0.547700
					CHANNELS 3 Xrotation Yrotation Zrotation
					JOINT newVegas:LeftArm
					{
						OFFSET 25.438599 -2.830597 -13.032500
						CHANNELS 3 Xrotation Yrotation Zrotation
						JOINT newVegas:LeftForeArm
						{
							OFFSET 29.960503 0.000000 0.000000
							CHANNELS 3 Xrotation Yrotation Zrotation
							JOINT newVegas:LeftHand
							{
								OFFSET 27.849251 0.000000 0.000000
								CHANNELS 3 Xrotation Yrotation Zrotation
								JOINT newVegas:LeftHandThumb1
								{
									OFFSET 4.487587 -3.305161 6.305391
									CHANNELS 3 Xrotation Yrotation Zrotation
									JOINT newVegas:LeftHandThumb2
									{
										OFFSET 5.480453 -3.164139 3.164143
										CHANNELS 3 Xrotation Yrotation Zrotation
										JOINT newVegas:LeftHandThumb3
										{
											OFFSET 5.159721 -2.978973 2.978967
											CHANNELS 3 Xrotation Yrotation Zrotation
											End Site
											{
												OFFSET 2.494507 5.926697 1.738678
											}
										}
									}
								}
								JOINT newVegas:LeftHandIndex1
								{
									OFFSET 18.578728 -0.527832 5.208049
									CHANNELS 3 Xrotation Yrotation Zrotation
									JOINT newVegas:LeftHandIndex2
									{
										OFFSET 3.192009 0.000000 0.000000
										CHANNELS 3 Xrotation Yrotation Zrotation
										JOINT newVegas:LeftHandIndex3
										{
											OFFSET 3.835129 0.000000 0.000000
											CHANNELS 3 Xrotation Yrotation Zrotation
											End Site
											{
												OFFSET -0.034599 3.816971 0.371180
											}
										}
									}
								}
								JOINT newVegas:LeftHandMiddle1
								{
									OFFSET 18.476105 0.000000 0.000000
									CHANNELS 3 Xrotation Yrotation Zrotation
									JOINT newVegas:LeftHandMiddle2
									{
										OFFSET 3.324875 0.000000 0.000000
										CHANNELS 3 Xrotation Yrotation Zrotation
										JOINT newVegas:LeftHandMiddle3
										{
											OFFSET 4.596550 0.000000 0.000000
											CHANNELS 3 Xrotation Yrotation Zrotation
											End Site
											{
												OFFSET 0.057701 4.578827 0.399218
											}
										}
									}
								}
								JOINT newVegas:LeftHandRing1
								{
									OFFSET 17.732719 0.121887 -4.201567
									CHANNELS 3 Xrotation Yrotation Zrotation
									JOINT newVegas:LeftHandRing2
									{
										OFFSET 2.733170 0.000000 0.000000
										CHANNELS 3 Xrotation Yrotation Zrotation
										JOINT newVegas:LeftHandRing3
										{
											OFFSET 3.178268 0.000000 0.000000
											CHANNELS 3 Xrotation Yrotation Zrotation
											End Site
											{
												OFFSET 0.119102 3.170624 0.185394
											}
										}
									}
								}
								JOINT newVegas:LeftHandPinky1
								{
									OFFSET 15.989624 -0.606689 -7.535461
									CHANNELS 3 Xrotation Yrotation Zrotation
									JOINT newVegas:LeftHandPinky2
									{
										OFFSET 2.538986 0.000000 0.000000
										CHANNELS 3 Xrotation Yrotation Zrotation
										JOINT newVegas:LeftHandPinky3
										{
											OFFSET 2.593102 0.000000 0.000000
											CHANNELS 3 Xrotation Yrotation Zrotation
											End Site
											{
												OFFSET -0.150902 2.584198 0.152708
											}
										}
									}
								}
							}
							JOINT newVegas:Left_Sleeve
							{
								OFFSET 0.267448 -0.649796 0.577675
								CHANNELS 3 Xrotation Yrotation Zrotation
								End Site
								{
									OFFSET 0.000000 15.991241 0.000000
								}
							}
							JOINT newVegas:Left_CapeC
							{
								OFFSET 15.715958 -8.608795 -6.935905
								CHANNELS 3 Xrotation Yrotation Zrotation
								JOINT newVegas:Left_CapeC1
								{
									OFFSET 0.000000 -8.688499 0.000000
									CHANNELS 3 Xrotation Yrotation Zrotation
									End Site
									{
										OFFSET 0.000000 8.688499 0.000000
									}
								}
							}
						}
						JOINT newVegas:Left_CapeB
						{
							OFFSET 26.118385 -8.608795 -7.079235
							CHANNELS 3 Xrotation Yrotation Zrotation
							JOINT newVegas:Left_CapeB1
							{
								OFFSET 0.000000 -8.688499 0.000000
								CHANNELS 3 Xrotation Yrotation Zrotation
								End Site
								{
									OFFSET 0.000000 8.688499 0.000000
								}
							}
						}
						JOINT newVegas:Left_CapeA
						{
							OFFSET 5.115639 -8.608795 -10.395809
							CHANNELS 3 Xrotation Yrotation Zrotation
							JOINT newVegas:Left_CapeA1
							{
								OFFSET 0.000000 -8.688499 0.000000
								CHANNELS 3 Xrotation Yrotation Zrotation
								End Site
								{
									OFFSET 0.000000 8.688499 0.000000
								}
							}
						}
					}
				}
				JOINT newVegas:RightShoulder
				{
					OFFSET -15.263000 10.923401 -0.547700
					CHANNELS 3 Xrotation Yrotation Zrotation
					JOINT newVegas:RightArm
					{
						OFFSET -25.438599 -2.830597 -13.032500
						CHANNELS 3 Xrotation Yrotation Zrotation
						JOINT newVegas:RightForeArm
						{
							OFFSET -29.960503 0.000000 0.000000
							CHANNELS 3 Xrotation Yrotation Zrotation
							JOINT newVegas:RightHand
							{
								OFFSET -27.849251 0.000000 0.000000
								CHANNELS 3 Xrotation Yrotation Zrotation
								JOINT newVegas:RightHandThumb1
								{
									OFFSET -4.487587 -3.305161 6.305391
									CHANNELS 3 Xrotation Yrotation Zrotation
									JOINT newVegas:RightHandThumb2
									{
										OFFSET -5.480453 -3.164139 3.164143
										CHANNELS 3 Xrotation Yrotation Zrotation
										JOINT newVegas:RightHandThumb3
										{
											OFFSET -5.159721 -2.978973 2.978967
											CHANNELS 3 Xrotation Yrotation Zrotation
											End Site
											{
												OFFSET -2.494507 5.926697 1.738678
											}
										}
									}
								}
								JOINT newVegas:RightHandIndex1
								{
									OFFSET -18.578728 -0.527832 5.208049
									CHANNELS 3 Xrotation Yrotation Zrotation
									JOINT newVegas:RightHandIndex2
									{
										OFFSET -3.192009 0.000000 0.000000
										CHANNELS 3 Xrotation Yrotation Zrotation
										JOINT newVegas:RightHandIndex3
										{
											OFFSET -3.835129 0.000000 0.000000
											CHANNELS 3 Xrotation Yrotation Zrotation
											End Site
											{
												OFFSET 0.034599 3.816971 0.371180
											}
										}
									}
								}
								JOINT newVegas:RightHandMiddle1
								{
									OFFSET -18.476105 0.000000 0.000000
									CHANNELS 3 Xrotation Yrotation Zrotation
									JOINT newVegas:RightHandMiddle2
									{
										OFFSET -3.324875 0.000000 0.000000
										CHANNELS 3 Xrotation Yrotation Zrotation
										JOINT newVegas:RightHandMiddle3
										{
											OFFSET -4.596550 0.000000 0.000000
											CHANNELS 3 Xrotation Yrotation Zrotation
											End Site
											{
												OFFSET -0.057701 4.578827 0.399218
											}
										}
									}
								}
								JOINT newVegas:RightHandRing1
								{
									OFFSET -17.732719 0.121887 -4.201567
									CHANNELS 3 Xrotation Yrotation Zrotation
									JOINT newVegas:RightHandRing2
									{
										OFFSET -2.733170 0.000000 0.000000
										CHANNELS 3 Xrotation Yrotation Zrotation
										JOINT newVegas:RightHandRing3
										{
											OFFSET -3.178268 0.000000 0.000000
											CHANNELS 3 Xrotation Yrotation Zrotation
											End Site
											{
												OFFSET -0.119102 3.170624 0.185394
											}
										}
									}
								}
								JOINT newVegas:RightHandPinky1
								{
									OFFSET -15.989624 -0.606689 -7.535461
									CHANNELS 3 Xrotation Yrotation Zrotation
									JOINT newVegas:RightHandPinky2
									{
										OFFSET -2.538986 0.000000 0.000000
										CHANNELS 3 Xrotation Yrotation Zrotation
										JOINT newVegas:RightHandPinky3
										{
											OFFSET -2.593102 0.000000 0.000000
											CHANNELS 3 Xrotation Yrotation Zrotation
											End Site
											{
												OFFSET 0.150902 2.584198 0.152708
											}
										}
									}
								}
							}
							JOINT newVegas:Right_CapeC
							{
								OFFSET -15.715958 -8.608795 -6.935905
								CHANNELS 3 Xrotation Yrotation Zrotation
								JOINT newVegas:Right_CapeC1
								{
									OFFSET 0.000000 -8.688499 0.000000
									CHANNELS 3 Xrotation Yrotation Zrotation
									End Site
									{
										OFFSET 0.000000 8.688499 0.000000
									}
								}
							}
							JOINT newVegas:Right_Sleeve
							{
								OFFSET -0.267448 -0.649994 0.577675
								CHANNELS 3 Xrotation Yrotation Zrotation
								End Site
								{
									OFFSET 0.000000 15.991302 0.000000
								}
							}
						}
						JOINT newVegas:Right_CapeA
						{
							OFFSET -5.115540 -8.608795 -10.395824
							CHANNELS 3 Xrotation Yrotation Zrotation
							JOINT newVegas:Right_CapeA1
							{
								OFFSET 0.000000 -8.688499 0.000000
								CHANNELS 3 Xrotation Yrotation Zrotation
								End Site
								{
									OFFSET 0.000000 8.688499 0.000000
								}
							}
						}
						JOINT newVegas:Right_CapeB
						{
							OFFSET -26.118187 -8.608795 -7.079266
							CHANNELS 3 Xrotation Yrotation Zrotation
							JOINT newVegas:Right_CapeB1
							{
								OFFSET 0.000000 -8.688499 0.000000
								CHANNELS 3 Xrotation Yrotation Zrotation
								End Site
								{
									OFFSET 0.000000 8.688499 0.000000
								}
							}
						}
					}
				}
				JOINT newVegas:Left_Collar
				{
					OFFSET 18.625099 8.655502 8.828100
					CHANNELS 3 Xrotation Yrotation Zrotation
					JOINT newVegas:Left_Collar1
					{
						OFFSET 14.783401 10.540405 -1.259500
						CHANNELS 3 Xrotation Yrotation Zrotation
						End Site
						{
							OFFSET 0.000000 18.199875 0.000000
						}
					}
				}
				JOINT newVegas:Collar_Back
				{
					OFFSET 0.000000 15.630707 -20.132601
					CHANNELS 3 Xrotation Yrotation Zrotation
					End Site
					{
						OFFSET 0.000000 22.523010 0.000000
					}
				}
				JOINT newVegas:Left_Peck
				{
					OFFSET 17.239599 -5.132599 25.482599
					CHANNELS 3 Xrotation Yrotation Zrotation
					End Site
					{
						OFFSET 0.000000 22.523010 0.000000
					}
				}
				JOINT newVegas:Right_Peck
				{
					OFFSET -17.239599 -5.132202 25.482599
					CHANNELS 3 Xrotation Yrotation Zrotation
					End Site
					{
						OFFSET 0.000000 22.523010 0.000000
					}
				}
				JOINT newVegas:Right_Collar
				{
					OFFSET -18.625099 8.655792 8.828100
					CHANNELS 3 Xrotation Yrotation Zrotation
					JOINT newVegas:Right_Collar1
					{
						OFFSET -14.783401 10.539993 -1.259500
						CHANNELS 3 Xrotation Yrotation Zrotation
						End Site
						{
							OFFSET 0.000000 18.199631 0.000000
						}
					}
				}
			}
		}
		JOINT newVegas:Belly
		{
			OFFSET 0.000000 -6.540398 9.014299
			CHANNELS 3 Xrotation Yrotation Zrotation
			End Site
			{
				OFFSET 0.000000 11.566666 0.000000
			}
		}
	}
	JOINT newVegas:ElvisFacialAnim_Joint
	{
		OFFSET 1.000000 -95.330101 -8.825800
		CHANNELS 3 Xrotation Yrotation Zrotation
		End Site
		{
			OFFSET 0.000000 35.315800 0.000000
		}
	}
}
MOTION
Frames: 4
Frame Time: 0.016667
-3.526494 78.410347 3.057370 11.660451 -49.374427 11.268414 -0.000001 0.000002 -0.000000 -69.006972 20.606595 47.788146 51.256656 -22.124323 3.397183 2.960962 1.488329 -15.125360 -0.000000 -0.000002 -0.000000 -0.000001 0.000000 0.000003 -33.116240 3.851183 -30.939808 58.819376 4.953896 -6.674913 -30.772837 -6.442859 30.151860 -0.000000 0.000003 0.000000 0.000001 0.000000 -0.000002 10.972523 2.720484 -2.032877 6.100707 5.566525 -4.284679 -5.786926 6.328150 -3.046183 0.458823 1.873393 -0.022544 0.458823 1.873371 -0.022536 0.000001 -0.000000 -0.000001 0.458819 1.873408 -0.022549 0.458822 1.873366 -0.022540 -0.000000 -0.000001 0.000001 0.000001 -0.000000 -0.000001 -1.875340 -16.181739 -2.870471 -10.644671 2.164755 -45.510654 -22.862375 -25.786256 -15.871649 2.491046 -2.511886 6.860490 18.457960 -9.513828 13.216574 -1.150198 11.255342 -8.400838 0.000003 -0.000003 0.000000 -1.232785 -5.771939 -0.192354 0.133950 -0.197661 -4.602116 -0.000003 0.000001 -0.000000 1.884749 4.663363 -4.597418 0.476695 -1.009866 -12.986448 -0.000002 -0.000000 -0.000000 3.024639 7.938930 -14.103503 -0.707997 -0.566247 -18.895737 0.000002 0.000003 0.000000 2.010386 6.305967 -22.386543 -0.815364 -0.210766 -16.746468 -0.000004 -0.000002 -0.000001 -0.000001 0.000001 -0.000001 -0.000001 0.000001 -0.000001 -0.000002 0.000002 -0.000001 0.000000 0.000001 0.000002 0.000001 0.000001 0.000001 0.000000 0.000001 0.000002 -0.000000 0.000002 0.000001 -5.074767 24.344978 1.482929 6.642442 -34.735009 57.610426 -21.032053 44.833860 19.961742 -0.087242 35.608457 7.474325 55.149522 18.649569 -29.698287 -0.442561 -14.180535 7.313148 0.000001 0.000002 0.000003 5.673373 7.585009 36.844165 1.050469 3.824486 68.900257 -0.000000 0.000001 -0.000001 -0.125701 1.886099 45.000756 -1.169030 3.204701 68.417684 -0.000001 -0.000000 -0.000000 -5.312016 1.216652 58.508814 -0.745206 1.667582 48.011251 -0.000001 0.000001 0.000000 -7.756797 -9.376472 47.264014 -0.526059 1.541606 45.600518 0.000000 -0.000004 0.000002 -0.000000 0.000001 -0.000001 -0.000000 0.000002 -0.000000 -0.000000 0.000001 -0.000002 -0.000001 -0.000001 0.000002 -0.000001 -0.000001 0.000003 -0.000001 -0.000001 0.000002 -0.000001 -0.000001 0.000003 0.000001 0.000003 -0.000000 0.000001 0.000003 -0.000000 0.000001 0.000003 -0.000000 0.000001 0.000003 -0.000000 0.000001 0.000003 -0.000000 0.000001 0.000003 -0.000000 0.000001 0.000003 -0.000000 -0.000001 -0.000002 0.000000 -0.000001 0.000002 -0.000000 
-3.553579 78.489662 2.938699 11.463713 -49.684261 11.053858 0.000000 -0.000004 0.000000 -68.720616 20.625057 48.041751 51.013515 -22.070196 3.387460 3.035208 1.506846 -15.293540 0.000000 0.000000 0.000000 0.000001 -0.000000 0.000001 -33.231165 3.794518 -30.750372 58.785492 5.095617 -6.669578 -30.630981 -6.212525 29.956701 -0.000000 0.000005 0.000000 0.000002 0.000000 0.000000 10.951300 2.722923 -2.043437 5.917138 5.588678 -4.389565 -5.960385 6.358695 -3.163037 0.448137 1.919270 -0.008433 0.448128 1.919279 -0.008439 -0.000000 -0.000002 0.000000 0.448207 1.919274 -0.008433 0.448140 1.919276 -0.008436 0.000001 -0.000002 0.000001 -0.000000 -0.000002 0.000000 -1.850135 -16.049179 -2.794405 -9.956432 2.817339 -45.285910 -23.315196 -27.943277 -17.248425 2.184526 -1.065455 7.247036 18.457992 -9.513800 13.216599 -1.150183 11.255338 -8.400823 0.000003 -0.000004 -0.000001 -1.232773 -5.771921 -0.192340 0.133961 -0.197669 -4.602077 -0.000001 0.000003 -0.000002 1.884760 4.663384 -4.597386 0.476673 -1.009836 -12.986433 -0.000002 -0.000002 0.000001 3.024630 7.938932 -14.103471 -0.707996 -0.566218 -18.895747 -0.000002 0.000001 0.000002 2.010423 6.305952 -22.386544 -0.815405 -0.210742 -16.746475 -0.000002 0.000002 0.000000 0.000002 -0.000002 0.000001 0.000002 -0.000002 0.000001 0.000001 -0.000001 0.000001 -0.000003 -0.000001 0.000002 -0.000003 -0.000001 -0.000001 -0.000003 -0.000001 0.000002 -0.000004 -0.000000 0.000001 -5.082252 24.342379 1.499010 5.825080 -34.063793 57.690148 -20.478437 43.293960 19.040913 0.231081 35.997166 7.762179 55.149526 18.649574 -29.698287 -0.442557 -14.180536 7.313148 0.000001 -0.000002 -0.000003 5.673374 7.585012 36.844165 1.050465 3.824493 68.900257 -0.000003 -0.000002 -0.000003 -0.125701 1.886100 45.000759 -1.169031 3.204703 68.417684 -0.000000 0.000001 0.000000 -5.312015 1.216654 58.508814 -0.745205 1.667583 48.011254 -0.000002 -0.000003 -0.000000 -7.756793 -9.376476 47.264014 -0.526055 1.541606 45.600515 0.000002 0.000002 -0.000003 0.000003 0.000000 -0.000003 0.000003 0.000001 -0.000001 0.000003 0.000000 -0.000003 0.000003 0.000000 -0.000000 0.000004 0.000000 0.000002 0.000003 0.000000 -0.000000 0.000004 0.000000 0.000003 0.000002 -0.000000 0.000000 0.000002 -0.000000 0.000000 0.000002 -0.000000 0.000000 0.000002 -0.000000 0.000000 0.000002 -0.000000 0.000000 0.000002 -0.000000 0.000000 0.000002 -0.000000 0.000000 -0.000000 0.000000 -0.000001 0.000000 -0.000004 0.000000 
-3.588142 78.567307 2.824462 11.330482 -50.033506 10.892599 0.000000 0.000001 -0.000000 -68.446350 20.654665 48.337635 50.769021 -22.017547 3.362821 3.085618 1.537744 -15.474784 0.000000 0.000000 -0.000000 -0.000000 0.000001 0.000002 -33.400684 3.763991 -30.554838 58.746778 5.253160 -6.658647 -30.474685 -5.964652 29.754756 -0.000000 0.000003 -0.000000 0.000002 -0.000003 0.000004 10.927428 2.724924 -2.043592 5.754458 5.620915 -4.465459 -6.114668 6.395255 -3.246991 0.486590 1.949039 -0.059940 0.486580 1.949047 -0.059937 0.000003 0.000001 0.000001 0.486663 1.949044 -0.059942 0.486516 1.949038 -0.059933 -0.000000 -0.000001 -0.000001 0.000003 0.000001 -0.000000 -1.856188 -16.125025 -2.793419 -9.304243 3.610387 -44.990610 -23.777459 -29.920706 -18.575193 1.944029 0.057007 7.820661 18.457983 -9.513800 13.216598 -1.150193 11.255266 -8.400881 0.000002 -0.000001 0.000001 -1.232756 -5.771926 -0.192319 0.133941 -0.197708 -4.602120 -0.000002 -0.000003 0.000004 1.884751 4.663366 -4.597400 0.476696 -1.009839 -12.986416 -0.000000 -0.000001 0.000001 3.024644 7.938912 -14.103473 -0.708014 -0.566204 -18.895742 0.000002 0.000001 0.000001 2.010397 6.305962 -22.386510 -0.815375 -0.210771 -16.746504 0.000002 0.000002 0.000001 0.000001 -0.000000 -0.000001 0.000001 -0.000000 -0.000001 -0.000000 0.000000 -0.000001 0.000002 0.000001 0.000001 0.000003 0.000001 -0.000001 0.000002 0.000001 0.000001 0.000002 0.000002 0.000001 -5.081655 24.149916 1.470715 7.290158 -35.178923 57.904486 -21.255086 45.591171 20.253101 -0.452698 34.561539 8.086108 55.149526 18.649569 -29.698298 -0.442557 -14.180537 7.313147 0.000001 -0.000001 -0.000001 5.673372 7.585015 36.844161 1.050469 3.824487 68.900250 -0.000001 0.000000 -0.000001 -0.125701 1.886102 45.000756 -1.169030 3.204700 68.417691 -0.000001 0.000001 -0.000001 -5.312012 1.216651 58.508807 -0.745207 1.667584 48.011251 0.000002 0.000001 -0.000001 -7.756796 -9.376473 47.264011 -0.526054 1.541605 45.600518 0.000003 -0.000002 0.000004 -0.000001 -0.000001 -0.000000 -0.000003 0.000000 0.000000 -0.000001 -0.000002 -0.000002 0.000003 0.000002 -0.000000 0.000004 0.000002 0.000003 0.000003 0.000002 -0.000000 0.000004 0.000002 0.000003 -0.000001 0.000002 -0.000001 -0.000001 0.000002 -0.000001 -0.000001 0.000002 -0.000001 -0.000001 0.000002 -0.000001 -0.000001 0.000002 -0.000001 -0.000001 0.000002 -0.000001 -0.000001 0.000002 -0.000001 0.000001 -0.000003 0.000001 0.000000 0.000001 -0.000000 
-3.625432 78.645638 2.714650 11.185405 -50.366047 10.755470 -0.000000 0.000001 -0.000000 -68.104964 20.712373 48.523105 50.506923 -21.915874 3.407277 3.126918 1.588571 -15.710895 -0.000000 0.000002 0.000000 -0.000001 0.000000 0.000001 -33.551911 3.750980 -30.397794 58.725297 5.407018 -6.648688 -30.336432 -5.732384 29.562158 -0.000000 0.000000 0.000000 0.000002 -0.000003 -0.000003 10.916944 2.715422 -2.051866 5.661715 5.628866 -4.526597 -6.202364 6.409810 -3.316668 0.447317 1.996160 -0.022842 0.447314 1.996185 -0.022850 0.000002 0.000000 -0.000001 0.447321 1.996180 -0.022848 0.447330 1.996160 -0.022843 -0.000000 0.000001 -0.000000 0.000002 0.000000 -0.000000 -1.837226 -16.093994 -2.699862 -8.760472 4.176574 -44.764988 -24.203696 -31.576859 -19.708429 1.849843 0.895190 8.346069 18.457966 -9.513817 13.216577 -1.150198 11.255335 -8.400847 0.000006 -0.000003 0.000004 -1.232774 -5.771950 -0.192329 0.133956 -0.197664 -4.602140 -0.000003 0.000002 -0.000001 1.884750 4.663356 -4.597438 0.476680 -1.009829 -12.986398 0.000001 0.000000 0.000002 3.024642 7.938915 -14.103492 -0.708018 -0.566184 -18.895763 0.000000 0.000003 0.000002 2.010393 6.305947 -22.386556 -0.815369 -0.210752 -16.746478 -0.000000 0.000005 -0.000001 -0.000000 0.000000 -0.000000 -0.000000 0.000000 -0.000000 -0.000001 0.000001 -0.000000 0.000004 -0.000002 0.000002 0.000004 -0.000003 -0.000001 0.000004 -0.000002 0.000002 0.000003 -0.000002 0.000001 -5.039717 24.119901 1.323477 8.594062 -36.353969 58.117069 -22.083533 47.698455 21.417704 -0.802653 33.303835 8.194899 55.149522 18.649577 -29.698291 -0.442562 -14.180533 7.313149 0.000000 0.000005 -0.000000 5.673375 7.585009 36.844168 1.050466 3.824481 68.900257 0.000003 -0.000002 0.000000 -0.125699 1.886100 45.000763 -1.169031 3.204702 68.417684 0.000001 0.000001 -0.000002 -5.312011 1.216651 58.508821 -0.745206 1.667585 48.011254 -0.000003 -0.000001 0.000001 -7.756794 -9.376478 47.264007 -0.526057 1.541606 45.600518 0.000003 -0.000000 0.000001 0.000000 -0.000002 0.000002 0.000000 -0.000003 0.000005 0.000000 -0.000003 0.000000 0.000001 0.000001 -0.000002 0.000001 0.000001 -0.000001 0.000001 0.000001 -0.000002 0.000001 0.000001 0.000001 0.000001 -0.000000 -0.000000 0.000001 -0.000000 -0.000000 0.000001 -0.000000 -0.000000 0.000001 -0.000000 -0.000000 0.000001 -0.000000 -0.000000 0.000001 -0.000000 -0.000000 0.000001 -0.000000 -0.000000 -0.000001 0.000001 -0.000000 -0.000000 0.000001 -0.000000 
